# xmcd CD database file
#
# Track frame offsets:
#	150
#	20416
#	41541
#	56386
#	74674
#	97348
#	110203
#	129903
#	138673
#	154876
#	168822
#	186912
#	215722
#	237781
#	260978
#	274191
#	297721
#
# Disc length: 4241 seconds
#
# Revision: 0
# Processed by: cddbd v1.5PL3 Copyright (c) Steve Scherf et al.
# Submitted via: CDex 1.40Release
#
DISCID=16108f11
DTITLE=Fleetwood Mac - Rumors
DYEAR=1969
DGENRE=Blues
TTITLE0=Chain
TTITLE1=Dreams
TTITLE2=Everywhere
TTITLE3=Rhiannon
TTITLE4=I'm So Afraid
TTITLE5=Temporary One
TTITLE6=Bleed to Love Her
TTITLE7=Big Love
TTITLE8=Landslide
TTITLE9=Say You Love Me
TTITLE10=My Little Demon
TTITLE11=Silver Springs
TTITLE12=You Make Loving Fun
TTITLE13=Sweet Girl
TTITLE14=Go Your Own Way
TTITLE15=Tusk
TTITLE16=Don't Stop
EXTD=YEAR: 1969 ID3G: 0
EXTT0=
EXTT1=
EXTT2=
EXTT3=
EXTT4=
EXTT5=
EXTT6=
EXTT7=
EXTT8=
EXTT9=
EXTT10=
EXTT11=
EXTT12=
EXTT13=
EXTT14=
EXTT15=
EXTT16=
PLAYORDER=
